{
  "accessors": [
    {
      "bufferView": 2,
      "componentType": 5126,
      "count": 9561,
      "max": [
        3.1215600967407227,
        3.2206158638000488,
        1.6356143951416016
      ],
      "min": [
        -1.1332687139511108,
        -1.0342156887054443,
        -1.158806324005127
      ],
      "type": "VEC3"
    },
    {
      "bufferView": 2,
      "byteOffset": 114732,
      "componentType": 5126,
      "count": 9561,
      "max": [
        1,
        1,
        1
      ],
      "min": [
        -1,
        -1,
        -1
      ],
      "type": "VEC3"
    },
    {
      "bufferView": 1,
      "componentType": 5126,
      "count": 9561,
      "max": [
        0.99456965923309326,
        0.99456661939620972
      ],
      "min": [
        0.0054303044453263283,
        0.0054334104061126709
      ],
      "type": "VEC2"
    },
    {
      "bufferView": 0,
      "componentType": 5125,
      "count": 33300,
      "max": [
        9560
      ],
      "min": [
        0
      ],
      "type": "SCALAR"
    }
  ],
  "asset": {
    "extras": {
      "author": "MaX3Dd (https://sketchfab.com/MaX3Dd)",
      "license": "CC-BY-4.0 (http://creativecommons.org/licenses/by/4.0/)",
      "source": "https://sketchfab.com/3d-models/isometric-room-garage-78f89ca9358e496dbe36275852135ef3",
      "title": "Isometric Room Garage"
    },
    "generator": "Sketchfab-9.35.0",
    "version": "2.0"
  },
  "bufferViews": [
    {
      "buffer": 0,
      "byteLength": 133200,
      "byteOffset": 0,
      "name": "floatBufferViews",
      "target": 34963
    },
    {
      "buffer": 0,
      "byteLength": 76488,
      "byteOffset": 133200,
      "byteStride": 8,
      "name": "floatBufferViews",
      "target": 34962
    },
    {
      "buffer": 0,
      "byteLength": 229464,
      "byteOffset": 209688,
      "byteStride": 12,
      "name": "floatBufferViews",
      "target": 34962
    }
  ],
  "buffers": [
    {
      "byteLength": 439152,
      "uri": "scene.bin"
    }
  ],
  "images": [
    {
      "uri": "textures/garageMaterial_baseColor.png"
    }
  ],
  "materials": [
    {
      "doubleSided": true,
      "name": "garageMaterial",
      "pbrMetallicRoughness": {
        "baseColorFactor": [
          1,
          1,
          1,
          1
        ],
        "baseColorTexture": {
          "index": 0,
          "texCoord": 0
        },
        "metallicFactor": 0,
        "roughnessFactor": 1
      }
    }
  ],
  "meshes": [
    {
      "name": "garage_garageMaterial_0",
      "primitives": [
        {
          "attributes": {
            "NORMAL": 1,
            "POSITION": 0,
            "TEXCOORD_0": 2
          },
          "indices": 3,
          "material": 0,
          "mode": 4
        }
      ]
    }
  ],
  "nodes": [
    {
      "children": [
        1
      ],
      "name": "RootNode (gltf orientation matrix)",
      "rotation": [
        -0.70710678118654746,
        -0,
        -0,
        0.70710678118654757
      ]
    },
    {
      "children": [
        2
      ],
      "name": "RootNode (model correction matrix)"
    },
    {
      "children": [
        3
      ],
      "matrix": [
        1,
        0,
        0,
        0,
        0,
        0,
        1,
        0,
        0,
        -1,
        0,
        0,
        0,
        0,
        0,
        1
      ],
      "name": "garage.fbx"
    },
    {
      "children": [
        4
      ],
      "name": "RootNode"
    },
    {
      "children": [
        5
      ],
      "matrix": [
        100,
        0,
        0,
        0,
        0,
        -1.6292067939183141e-05,
        -99.999999999998678,
        0,
        0,
        99.999999999998678,
        -1.6292067939183141e-05,
        0,
        100.58555603027344,
        182.22933959960938,
        309.32012939453125,
        1
      ],
      "name": "garage"
    },
    {
      "mesh": 0,
      "name": "garage_garageMaterial_0"
    }
  ],
  "samplers": [
    {
      "magFilter": 9729,
      "minFilter": 9987,
      "wrapS": 10497,
      "wrapT": 10497
    }
  ],
  "scene": 0,
  "scenes": [
    {
      "name": "OSG_Scene",
      "nodes": [
        0
      ]
    }
  ],
  "textures": [
    {
      "sampler": 0,
      "source": 0
    }
  ]
}

