<svg width="121" height="120" viewBox="0 0 121 120" fill="none" xmlns="http://www.w3.org/2000/svg">
<g clip-path="url(#clip0)">
<path d="M0.5 60C0.5 26.8629 27.3629 0 60.5 0C93.6371 0 120.5 26.8629 120.5 60C120.5 93.1371 93.6371 120 60.5 120C27.3629 120 0.5 93.1371 0.5 60Z" fill="white"/>
<path d="M60.5 0C27.368 0 0.5 26.868 0.5 60C0.5 93.132 27.368 120 60.5 120C93.632 120 120.5 93.132 120.5 60C120.5 26.868 93.632 0 60.5 0ZM87.8953 46.7816C87.9219 47.3721 87.9347 47.9654 87.9347 48.5614C87.9347 66.7593 74.0828 87.7441 48.751 87.7451H48.752H48.751C40.9736 87.7451 33.7364 85.4654 27.6417 81.5588C28.7193 81.6861 29.8161 81.7493 30.9266 81.7493C37.3793 81.7493 43.3174 79.5483 48.0314 75.8542C42.0027 75.7425 36.9197 71.7609 35.1655 66.2888C36.0051 66.4499 36.8684 66.5378 37.7537 66.5378C39.0107 66.5378 40.2284 66.3684 41.3856 66.0526C35.084 64.791 30.337 59.2218 30.337 52.5531C30.337 52.4908 30.337 52.435 30.3389 52.3773C32.1946 53.4091 34.3168 54.0298 36.5764 54.0994C32.8785 51.6321 30.4478 47.4142 30.4478 42.6361C30.4478 40.1129 31.1299 37.749 32.3127 35.7138C39.1041 44.0469 49.2537 49.5273 60.6996 50.1031C60.4634 49.0942 60.3416 48.0432 60.3416 46.9629C60.3416 39.3604 66.5095 33.1924 74.1148 33.1924C78.0763 33.1924 81.6542 34.8669 84.1673 37.5439C87.3048 36.925 90.251 35.7788 92.9124 34.2014C91.8824 37.4158 89.6998 40.1129 86.8562 41.8185C89.6422 41.4853 92.2972 40.7465 94.7645 39.6497C92.9216 42.4118 90.5842 44.838 87.8953 46.7816Z" fill="url(#paint0_linear)"/>
</g>
<defs>
<linearGradient id="paint0_linear" x1="60.5" y1="0" x2="60.5" y2="120" gradientUnits="userSpaceOnUse">
<stop stop-color="#8D440B"/>
<stop offset="1" stop-color="#8D440B"/>
</linearGradient>
<clipPath id="clip0">
<path d="M0.5 60C0.5 26.8629 27.3629 0 60.5 0C93.6371 0 120.5 26.8629 120.5 60C120.5 93.1371 93.6371 120 60.5 120C27.3629 120 0.5 93.1371 0.5 60Z" fill="white"/>
</clipPath>
</defs>
</svg>
