<svg width="121" height="120" viewBox="0 0 121 120" fill="none" xmlns="http://www.w3.org/2000/svg">
<g clip-path="url(#clip0)">
<path d="M60.5 120C93.6371 120 120.5 93.1371 120.5 60C120.5 26.8629 93.6371 0 60.5 0C27.3629 0 0.5 26.8629 0.5 60C0.5 93.1371 27.3629 120 60.5 120Z" fill="url(#paint0_linear)"/>
<path d="M27.9548 58.6996L85.8048 36.3946C88.4898 35.4246 90.8348 37.0496 89.9648 41.1096L89.9698 41.1046L80.1198 87.5096C79.3898 90.7996 77.4348 91.5996 74.6998 90.0496L59.6998 78.9946L52.4648 85.9646C51.6648 86.7646 50.9898 87.4396 49.4398 87.4396L50.5048 72.1746L78.3048 47.0596C79.5148 45.9946 78.0348 45.3946 76.4398 46.4546L42.0848 68.0846L27.2748 63.4646C24.0598 62.4446 23.9898 60.2496 27.9548 58.6996Z" fill="white"/>
</g>
<path d="M60.5 119C27.9152 119 1.5 92.5848 1.5 60H-0.5C-0.5 93.6894 26.8106 121 60.5 121V119ZM119.5 60C119.5 92.5848 93.0848 119 60.5 119V121C94.1894 121 121.5 93.6894 121.5 60H119.5ZM60.5 1C93.0848 1 119.5 27.4152 119.5 60H121.5C121.5 26.3106 94.1894 -1 60.5 -1V1ZM60.5 -1C26.8106 -1 -0.5 26.3106 -0.5 60H1.5C1.5 27.4152 27.9152 1 60.5 1V-1Z" fill="url(#paint1_linear)"/>
<defs>
<linearGradient id="paint0_linear" x1="60.5" y1="0" x2="60.5" y2="120" gradientUnits="userSpaceOnUse">
<stop stop-color="#8D440B"/>
<stop offset="1" stop-color="#8D440B"/>
</linearGradient>
<linearGradient id="paint1_linear" x1="60.5" y1="0" x2="60.5" y2="120" gradientUnits="userSpaceOnUse">
<stop stop-color="#9E5123"/>
<stop offset="1" stop-color="#BA1F1B" stop-opacity="0.6"/>
</linearGradient>
<clipPath id="clip0">
<path d="M0.5 60C0.5 26.8629 27.3629 0 60.5 0C93.6371 0 120.5 26.8629 120.5 60C120.5 93.1371 93.6371 120 60.5 120C27.3629 120 0.5 93.1371 0.5 60Z" fill="white"/>
</clipPath>
</defs>
</svg>
