<svg width="121" height="120" viewBox="0 0 121 120" fill="none" xmlns="http://www.w3.org/2000/svg">
<g clip-path="url(#clip0)">
<g clip-path="url(#clip1)">
<rect x="0.5" width="120" height="120" rx="40" fill="white"/>
<path d="M14.9865 121.12H92.0621H95.5C96.0459 121.623 119.959 137.143 119.959 137.143L121.5 14C121.132 6.35428 113.365 0 105.646 0L15.0135 0.0171429C7.29999 0.0171429 -1 6.85428 -1 14.5L1.04053 106.971C1.04053 115.034 7.28918 121.12 14.9865 121.12ZM72.0027 32.4743L71.8243 32.5429L71.8892 32.4743H72.0027ZM30.754 39.7257C40.6621 32.1029 49.8459 32.4686 49.8459 32.4686L50.5865 33.24C38.4621 36.2971 32.9649 42.0229 32.9649 42.0229C33.527 41.8971 58.0081 26.9657 87.673 42.4C87.673 42.4 82.1648 37.0457 70.7865 33.6171L71.7919 32.5714C73.3648 32.5771 81.6892 32.8857 90.5973 39.7714C90.5973 39.7714 100.565 57.7714 100.565 79.8857C100.235 79.4629 94.3811 89.4057 79.3162 89.7486C79.3162 89.7486 76.7648 86.6972 74.9486 84.0343C83.7594 81.36 87.0567 76.0114 87.0567 76.0114C69.9054 87.4286 54.873 85.6457 36.8892 77.9314C36.7216 77.9314 36.6459 77.8514 36.5594 77.76V77.7257C36.473 77.64 36.3973 77.5543 36.2297 77.5543H35.9054C34.8027 76.7886 34.0676 76.4114 34.0676 76.4114C34.0676 76.4114 37.3594 81.76 45.8189 84.4343C43.5973 87.1143 41.3973 90.16 41.3973 90.16C26.3378 89.7829 20.8459 79.84 20.8459 79.84C20.8459 57.6914 30.754 39.7257 30.754 39.7257Z" fill="url(#paint0_linear)"/>
<path d="M72.9754 72.9771C76.8186 72.9771 79.9484 69.5485 79.9484 65.32C79.9484 61.12 76.8349 57.6914 72.9754 57.6914V57.7086C69.1484 57.7086 66.0133 61.1257 66.0024 65.3543C66.0024 69.5485 69.1322 72.9771 72.9754 72.9771Z" fill="url(#paint1_linear)"/>
<path d="M48.0135 72.9771C51.8567 72.9771 54.9865 69.5485 54.9865 65.32C54.9865 61.12 51.8784 57.6914 48.0351 57.6914L48.0135 57.7086C44.1703 57.7086 41.0405 61.1257 41.0405 65.3543C41.0405 69.5485 44.1703 72.9771 48.0135 72.9771Z" fill="url(#paint2_linear)"/>
</g>
</g>
<defs>
<linearGradient id="paint0_linear" x1="60.5" y1="0" x2="60.5" y2="137.143" gradientUnits="userSpaceOnUse">
<stop stop-color="#8D440B"/>
<stop offset="1" stop-color="#8D440B"/>
</linearGradient>
<linearGradient id="paint1_linear" x1="72.9754" y1="57.6914" x2="72.9754" y2="72.9771" gradientUnits="userSpaceOnUse">
<stop stop-color="#8D440B"/>
<stop offset="1" stop-color="#8D440B"/>
</linearGradient>
<linearGradient id="paint2_linear" x1="48.0135" y1="57.6914" x2="48.0135" y2="72.9771" gradientUnits="userSpaceOnUse">
<stop stop-color="#8D440B"/>
<stop offset="1" stop-color="#8D440B"/>
</linearGradient>
<clipPath id="clip0">
<path d="M0.5 60C0.5 26.8629 27.3629 0 60.5 0C93.6371 0 120.5 26.8629 120.5 60C120.5 93.1371 93.6371 120 60.5 120C27.3629 120 0.5 93.1371 0.5 60Z" fill="white"/>
</clipPath>
<clipPath id="clip1">
<rect x="0.5" width="120" height="120" rx="40" fill="white"/>
</clipPath>
</defs>
</svg>
